# xmcd
#
# Track frame offsets:
#	150
#	13363
#	24578
#	35025
#	48350
#	59245
#	73090
#	83788
#	96375
#	108653
#	119055
#	132918
#	142583
#	154290
#	164285
#	176348
#	188590
#	199330
#	208690
#	221560
#
# Disc length: 3110 seconds
#
# Revision: 0
# Processed by: cddbd v1.4PL0 Copyright (c) Steve Scherf et al.
# Submitted via: dBpowerAMP V4.0
#
DISCID=320c2414
DTITLE=Jim Reeves - Songs Of Faith
DYEAR=1990
DGENRE=Country
TTITLE0=It's No Secret
TTITLE1=How Long Has It Been
TTITLE2=In the Garden
TTITLE3=My Cathedral
TTITLE4=Take My Hand, Precious Lord
TTITLE5=Have Thine Own Way, Lord
TTITLE6=The Night Watch
TTITLE7=This World Is Not My Home
TTITLE8=I've Lived A Lot In My Time
TTITLE9=The Flowers, The Sunset, The Trees
TTITLE10=Whispering Hope
TTITLE11=Across The Bridge
TTITLE12=I'll Fly Away
TTITLE13=The Farmer And The Lord (Sweet Hour Of Prayer)
TTITLE14=God Be With You
TTITLE15=Precious Memories
TTITLE16=Where We'll Never Grow Old
TTITLE17=Padre Of Old San Antone
TTITLE18=Suppertime
TTITLE19=May The Good Lord Bless And Keep You
EXTD=
EXTT0=
EXTT1=
EXTT2=
EXTT3=
EXTT4=
EXTT5=
EXTT6=
EXTT7=
EXTT8=
EXTT9=
EXTT10=
EXTT11=
EXTT12=
EXTT13=
EXTT14=
EXTT15=
EXTT16=
EXTT17=
EXTT18=
EXTT19=
PLAYORDER=
